<?xml version="1.0" encoding="utf-8"?>
<!-- Generator: Adobe Illustrator 24.1.1, SVG Export Plug-In . SVG Version: 6.00 Build 0)  -->
<svg version="1.1" id="Layer_1" xmlns="http://www.w3.org/2000/svg" xmlns:xlink="http://www.w3.org/1999/xlink" x="0px" y="0px"
	 viewBox="0 0 68.98 28.5" fill="currentColor" xml:space="preserve">
<g>
	<path d="M17.1,18.9c0-0.24-0.07-0.31-0.31-0.31c-2.21,0.01-4.41,0.01-6.62,0c-0.22,0-0.31,0.07-0.3,0.3c0.01,0.8,0,1.6,0,2.39
		c0,0.11-0.05,0.26,0.04,0.31c0.1,0.06,0.18-0.09,0.26-0.15c1.18-0.89,2.81-0.72,3.77,0.39c0.96,1.11,0.9,2.76-0.14,3.79
		c-1.07,1.05-2.36,1.6-3.86,1.62c-3.49,0.05-6.17-3.16-5.5-6.58c0.49-2.5,2.51-4.26,5.12-4.49c0.33-0.03,0.34-0.03,0.34-0.36
		c0-1.12,0-2.24,0-3.36c0-1.09,0-2.18,0-3.26c0-0.47,0-0.48-0.48-0.45c-2.66,0.16-4.92,1.19-6.75,3.13
		c-3.78,4.01-3.51,10.44,0.62,14.1c2.27,2.01,4.95,2.82,7.95,2.43c2.19-0.28,4.06-1.25,5.64-2.8c0.16-0.15,0.22-0.31,0.22-0.54
		C17.1,23,17.1,20.95,17.1,18.9z"/>
	<path d="M26.06,18.89c0-0.22-0.06-0.31-0.29-0.31c-0.67,0.01-1.35,0.01-2.02,0c-0.21,0-0.28,0.08-0.32,0.27
		c-0.29,1.61-0.59,3.22-0.89,4.82c-0.1,0.55-0.21,1.1-0.31,1.66c-0.02,0-0.04,0-0.06,0c-0.02-0.08-0.04-0.17-0.05-0.25
		c-0.38-2.07-0.77-4.14-1.14-6.21c-0.04-0.22-0.12-0.3-0.35-0.3c-0.63,0.01-1.25,0-1.88,0.01c-0.4,0-0.4,0-0.4,0.4
		c0,2.35,0,4.71,0,7.06c0,0.72,0,1.44,0,2.16c0,0.2,0.06,0.28,0.27,0.28c0.45-0.01,0.91,0,1.36,0c0.35,0,0.35,0,0.35-0.35
		c0-1.83,0-3.66,0-5.49c0-0.09-0.02-0.18,0.06-0.32c0.07,0.4,0.13,0.74,0.18,1.08c0.27,1.61,0.53,3.23,0.79,4.84
		c0.03,0.18,0.1,0.26,0.29,0.25c0.32-0.01,0.64,0,0.96,0c0.39,0,0.39,0,0.45-0.38c0.3-1.84,0.6-3.69,0.91-5.53
		c0.01-0.07,0.03-0.13,0.05-0.2c0.05,0.19,0.05,0.37,0.05,0.55c0,1.75,0,3.5,0,5.26c0,0.31,0.01,0.31,0.32,0.31
		c0.45,0,0.91-0.01,1.36,0c0.23,0.01,0.31-0.07,0.31-0.31C26.06,25.09,26.06,21.99,26.06,18.89z"/>
	<path d="M48.21,18.59c-0.46,0.01-0.92,0.01-1.38,0c-0.24-0.01-0.31,0.09-0.31,0.32c0.01,0.86,0,1.72,0,2.58c0,0.34,0,0.69,0,1.03
		c0,0.09,0.01,0.19-0.12,0.23c-0.32,0.1-0.49-0.01-0.49-0.35c0-1.17,0-2.33,0-3.5c0-0.23-0.07-0.32-0.31-0.31
		c-0.45,0.02-0.91,0-1.36,0c-0.33,0-0.33,0-0.33,0.32c0,1.54,0,3.08,0,4.62c0,1.56,0,3.11,0,4.67c0,0.21,0.06,0.29,0.28,0.29
		c0.46-0.01,0.92,0,1.38,0c0.33,0,0.34-0.01,0.34-0.34c0-1.01,0-2.02,0-3.03c0-0.35,0-0.7,0-1.06c0-0.08-0.02-0.17,0.09-0.21
		c0.32-0.11,0.51,0.02,0.52,0.36c0,0.06,0,0.13,0,0.19c0,1.26,0,2.52,0,3.78c0,0.3,0.01,0.31,0.32,0.31c0.45,0,0.89,0,1.34,0
		c0.32,0,0.32,0,0.32-0.33c0-1.48,0-2.96,0-4.43c0-1.61,0-3.22,0-4.83C48.51,18.67,48.43,18.58,48.21,18.59z"/>
	<path d="M42.83,20.44c0-0.27-0.01-0.53-0.07-0.79c-0.13-0.61-0.48-0.95-1.1-1.02c-0.71-0.08-1.42-0.06-2.13-0.01
		c-0.79,0.05-1.17,0.47-1.26,1.26c-0.06,0.55-0.02,1.11-0.03,1.67c0,0.17,0.08,0.24,0.24,0.23c0.49,0,0.97-0.01,1.46,0
		c0.21,0,0.29-0.07,0.29-0.29c-0.01-0.46-0.01-0.92,0-1.38c0-0.26,0.12-0.39,0.31-0.39c0.19,0,0.3,0.13,0.3,0.4
		c0,0.84,0,1.67,0,2.51c0,0.17-0.06,0.24-0.24,0.24c-0.37-0.01-0.74,0.01-1.1,0c-0.2-0.01-0.27,0.08-0.26,0.26
		c0.01,0.2,0.01,0.39,0,0.59c-0.01,0.18,0.07,0.25,0.25,0.25c0.35-0.01,0.7,0.01,1.06-0.01c0.23-0.01,0.3,0.07,0.29,0.3
		c-0.01,0.88,0,1.75,0,2.63c0,0.08,0,0.16-0.01,0.23c-0.02,0.17-0.11,0.28-0.29,0.28c-0.17,0-0.28-0.1-0.3-0.27
		c-0.01-0.11-0.02-0.22-0.02-0.33c0-0.51,0-1.02,0-1.53c0-0.14-0.04-0.24-0.21-0.24c-0.52,0.01-1.05,0-1.57,0
		c-0.12,0-0.2,0.04-0.2,0.17c0.01,0.73-0.06,1.46,0.05,2.18c0.11,0.69,0.53,1.08,1.23,1.11c0.67,0.03,1.35,0.03,2.02,0
		c0.71-0.03,1.13-0.44,1.25-1.14c0.04-0.23,0.05-0.47,0.05-0.7c0-1.02,0-2.05,0-3.08C42.83,22.52,42.83,21.48,42.83,20.44z"/>
	<path d="M37.36,19.71c-0.11-0.66-0.48-1.01-1.14-1.09c-0.59-0.07-1.19-0.02-1.78-0.03c-1.12-0.01-1.6,0.48-1.62,1.6
		c0,0.05,0,0.11,0,0.16c0,1.06,0,2.13,0,3.19c0,1,0,2,0,3c0,0.25-0.01,0.5,0.04,0.75c0.13,0.78,0.57,1.17,1.35,1.19
		c0.6,0.01,1.2,0.01,1.81,0c0.81-0.01,1.28-0.45,1.36-1.26c0.07-0.66,0.02-1.33,0.04-1.99c0-0.16-0.06-0.22-0.22-0.22
		c-0.5,0.01-1,0.01-1.5,0c-0.2,0-0.26,0.08-0.26,0.26c0,0.41,0,0.83-0.01,1.24c0,0.2,0,0.39-0.01,0.59
		c-0.02,0.17-0.12,0.27-0.3,0.27c-0.18,0-0.27-0.1-0.3-0.27c-0.01-0.07-0.01-0.14-0.01-0.21c0-2.23,0-4.46,0-6.69
		c0-0.09,0-0.19,0.03-0.28c0.04-0.15,0.14-0.22,0.29-0.22c0.14,0,0.24,0.08,0.27,0.21c0.02,0.09,0.03,0.19,0.03,0.28
		c0,0.44,0,0.88,0,1.31c0,0.14,0.02,0.25,0.2,0.25c0.53,0,1.06,0,1.6,0c0.12,0,0.2-0.06,0.19-0.18
		C37.41,20.96,37.47,20.33,37.36,19.71z"/>
	<path d="M53.4,27.39c-0.52,0.01-1.05,0-1.57,0c-0.19,0-0.26-0.07-0.26-0.26c0.01-1.01,0.01-2.02,0-3.03c0-0.21,0.08-0.27,0.28-0.26
		c0.5,0.01,1,0,1.5,0.01c0.2,0,0.27-0.07,0.26-0.26c-0.01-0.2-0.01-0.39,0-0.59c0.01-0.18-0.06-0.25-0.25-0.24
		c-0.51,0.01-1.02,0-1.52,0c-0.19,0-0.27-0.07-0.27-0.26c0.01-0.84,0.01-1.67,0-2.51c0-0.21,0.07-0.29,0.28-0.29
		c0.48,0.01,0.95,0,1.43,0c0.31,0,0.32-0.01,0.33-0.34c0-0.16-0.01-0.31,0-0.47c0.02-0.23-0.08-0.31-0.31-0.31
		c-1.13,0.01-2.27,0.01-3.4,0c-0.24,0-0.3,0.08-0.3,0.31c0.01,1.55,0,3.1,0,4.65c0,1.53,0,3.07,0,4.6c0,0.34,0,0.34,0.35,0.34
		c1,0,2,0,3,0c0.79,0,0.78,0,0.76-0.8C53.7,27.47,53.62,27.38,53.4,27.39z"/>
	<path d="M63.9,18.9c0-0.29-0.02-0.31-0.31-0.31c-1.05,0-2.1,0-3.14,0c-0.33,0-0.34,0.01-0.34,0.35c0,1.53,0,3.07,0,4.6
		c0,1.55,0,3.1,0,4.65c0,0.23,0.07,0.32,0.31,0.31c0.4-0.02,0.8,0,1.2-0.01c0.54,0,0.5,0.07,0.5-0.5c0-2.65,0-5.3,0-7.95
		c0-0.32,0.01-0.33,0.33-0.33c0.4,0,0.8-0.01,1.2,0c0.19,0,0.27-0.07,0.26-0.26C63.89,19.26,63.9,19.08,63.9,18.9z"/>
	<path d="M13.18,17.59c0.33,0.49,0.29,0.43,0.57-0.01c1.67-2.61,2.48-5.48,2.54-8.33c0-1.1-0.1-1.96-0.23-2.82
		c-0.35-2.29-1.22-4.37-2.48-6.3c-0.12-0.18-0.18-0.14-0.27,0.01c-0.12,0.21-0.25,0.41-0.38,0.62C10.8,4.36,10.15,8.23,11,12.34
		C11.4,14.22,12.11,15.99,13.18,17.59z M13.6,17.02c-0.03,0.07-0.05,0.2-0.15,0.19c-0.09-0.01-0.11-0.13-0.14-0.2
		c-0.44-0.95-0.63-1.96-0.65-3.07c0.01-0.97,0.24-1.95,0.68-2.88c0.03-0.06,0.04-0.16,0.12-0.15c0.08,0,0.09,0.1,0.12,0.16
		C14.43,13.04,14.49,15.03,13.6,17.02z M12.24,4.05c0.31-0.82,0.64-1.63,1.05-2.41c0.04-0.07,0.06-0.19,0.15-0.19
		c0.1-0.01,0.12,0.11,0.16,0.18c1.52,2.74,2.18,5.67,1.97,8.8c-0.03,0.45-0.08,0.89-0.15,1.33c-0.01,0.08-0.01,0.16-0.09,0.25
		c0-0.55-0.01-1.07-0.05-1.59c-0.16-2.06-0.75-4-1.65-5.85c-0.02-0.04-0.05-0.08-0.07-0.12c-0.08-0.14-0.15-0.11-0.21,0.01
		c-0.11,0.22-0.23,0.45-0.33,0.67c-0.89,2.03-1.4,4.14-1.43,6.36c0,0.15-0.02,0.29-0.02,0.44C11.12,9.24,11.29,6.61,12.24,4.05z"/>
	<path d="M68.89,19.52c-0.14-0.5-0.47-0.82-0.99-0.88c-0.81-0.09-1.63-0.09-2.43,0c-0.48,0.06-0.8,0.36-0.96,0.83
		c-0.08,0.25-0.11,0.51-0.11,0.76c0,1.1,0,2.19,0,3.29c0.01,1.2-0.05,2.41,0.02,3.61c0.05,0.93,0.54,1.36,1.48,1.36
		c0.52,0,1.05,0,1.57,0c0.95,0,1.43-0.45,1.5-1.4c0.01-0.09,0.01-0.17,0.01-0.26c0-2.2,0-4.4,0-6.59
		C68.98,20,68.95,19.76,68.89,19.52z M67,26.96c0,0.07-0.01,0.14-0.03,0.21c-0.05,0.14-0.15,0.22-0.3,0.21
		c-0.16-0.01-0.24-0.1-0.27-0.25c-0.01-0.08-0.01-0.17-0.01-0.26c0-1.11,0-2.22,0-3.33c0-1.11,0-2.22,0-3.33
		c0-0.09,0-0.19,0.02-0.28c0.03-0.13,0.11-0.2,0.25-0.22c0.13-0.02,0.23,0.04,0.29,0.15C67,19.95,67,20.04,67,20.13
		C67,22.41,67,24.69,67,26.96z"/>
	<path d="M31.69,19.75c-0.09-0.63-0.46-1.04-1.04-1.11c-0.8-0.09-1.61-0.09-2.41,0c-0.52,0.05-0.85,0.37-0.99,0.87
		c-0.08,0.29-0.1,0.58-0.1,0.88c0,1.06,0,2.11,0,3.17c0,1.02,0,2.05,0,3.07c0,0.22,0.01,0.44,0.04,0.66
		c0.11,0.75,0.54,1.17,1.3,1.19c0.64,0.02,1.28,0.02,1.92,0c0.72-0.02,1.17-0.43,1.28-1.13c0.03-0.19,0.05-0.39,0.05-0.58
		c0-2.14,0-4.27,0-6.41C31.74,20.16,31.72,19.95,31.69,19.75z M29.75,26.94c0,0.08-0.01,0.17-0.04,0.25
		c-0.05,0.13-0.15,0.19-0.3,0.18c-0.14-0.01-0.24-0.09-0.26-0.23c-0.02-0.11-0.02-0.23-0.02-0.35c0-1.09,0-2.17,0-3.26
		c0-1.11,0-2.22,0-3.33c0-0.36,0.08-0.49,0.29-0.5c0.22-0.01,0.33,0.14,0.33,0.5C29.76,22.45,29.76,24.7,29.75,26.94z"/>
	<path d="M57.55,18.59c-0.9,0-1.8,0-2.7,0c-0.32,0-0.33,0.01-0.33,0.33c0,1.53,0,3.07,0,4.6c0,1.56,0,3.11,0,4.67
		c0,0.22,0.07,0.31,0.29,0.3c0.45-0.01,0.89,0,1.34,0c0.35,0,0.35,0,0.35-0.35c0-0.92,0-1.83,0-2.75c0-0.19,0.07-0.26,0.26-0.26
		c0.38,0.01,0.77,0.02,1.15-0.02c0.58-0.06,0.97-0.38,1.11-0.95c0.04-0.17,0.08-0.35,0.08-0.53c0.01-1.18,0.03-2.36,0-3.54
		C59.08,19.05,58.58,18.59,57.55,18.59z M57.12,23.54c0,0.29-0.12,0.45-0.32,0.48c-0.22,0.04-0.29-0.01-0.29-0.23
		c0-0.59,0-1.19,0-1.78c0-0.05,0-0.11,0-0.16c0,0,0,0,0,0c0-0.62,0-1.23,0-1.85c0-0.1-0.04-0.24,0.11-0.28
		c0.16-0.04,0.31-0.01,0.42,0.14c0.07,0.11,0.09,0.23,0.09,0.36C57.13,21.32,57.13,22.43,57.12,23.54z"/>
</g>
</svg>
