<svg width="17" height="28" viewBox="0 0 17 28" fill="none" xmlns="http://www.w3.org/2000/svg">
    <g clip-path="url(#clip0)">
        <path d="M16.8119 18.5815C16.8119 18.3455 16.7431 18.2767 16.5071 18.2767C14.3344 18.2865 12.1714 18.2865 9.9987 18.2767C9.7824 18.2767 9.69392 18.3455 9.70375 18.5716C9.71358 19.3581 9.70375 20.1447 9.70375 20.9214C9.70375 21.0295 9.6546 21.177 9.74308 21.2261C9.84139 21.2851 9.92005 21.1376 9.9987 21.0787C11.1588 20.2037 12.7613 20.3708 13.7052 21.4621C14.649 22.5534 14.59 24.1756 13.5675 25.1882C12.5156 26.2205 11.2473 26.7612 9.77257 26.7809C6.34139 26.8301 3.70656 23.6742 4.36527 20.3118C4.84701 17.8539 6.83297 16.1236 9.39898 15.8975C9.72342 15.868 9.73325 15.868 9.73325 15.5435C9.73325 14.4424 9.73325 13.3413 9.73325 12.2402C9.73325 11.1685 9.73325 10.0969 9.73325 9.03511C9.73325 8.57304 9.73325 8.5632 9.26134 8.5927C6.64617 8.75 4.42426 9.76264 2.6251 11.6699C-1.09119 15.6124 -0.825741 21.934 3.23465 25.5323C5.46639 27.5084 8.10122 28.3048 11.0507 27.9214C13.2038 27.6461 15.0422 26.6924 16.5956 25.1685C16.7529 25.0211 16.8119 24.8638 16.8119 24.6376C16.8119 22.6124 16.8119 20.5969 16.8119 18.5815Z" fill="#FEFEFE"/>
        <path d="M12.9578 17.2935C13.2823 17.7753 13.243 17.7163 13.5182 17.2837C15.1601 14.7177 15.9564 11.8961 16.0154 9.09411C16.0154 8.01265 15.9171 7.16714 15.7893 6.32164C15.4452 4.07023 14.5899 2.02529 13.3511 0.127817C13.2331 -0.0491492 13.1741 -0.00982338 13.0857 0.137649C12.9677 0.344109 12.8399 0.540738 12.7121 0.747199C10.618 4.28653 9.97892 8.0913 10.8146 12.132C11.2079 13.9803 11.9059 15.7205 12.9578 17.2935ZM13.3708 16.7332C13.3413 16.802 13.3216 16.9298 13.2233 16.92C13.1348 16.9101 13.1152 16.7921 13.0857 16.7233C12.6531 15.7893 12.4663 14.7964 12.4466 13.7051C12.4564 12.7514 12.6826 11.7879 13.1152 10.8736C13.1446 10.8146 13.1545 10.7163 13.2331 10.7261C13.3118 10.7261 13.3216 10.8244 13.3511 10.8834C14.1868 12.8202 14.2458 14.7767 13.3708 16.7332ZM12.0337 3.98175C12.3385 3.17557 12.6629 2.37922 13.066 1.61237C13.1053 1.54355 13.125 1.42557 13.2135 1.42557C13.3118 1.41574 13.3314 1.53372 13.3708 1.60254C14.8652 4.29636 15.514 7.17697 15.3076 10.2542C15.2781 10.6966 15.2289 11.1292 15.1601 11.5618C15.1503 11.6405 15.1503 11.7191 15.0716 11.8076C15.0716 11.2669 15.0618 10.7556 15.0225 10.2444C14.8651 8.21911 14.2851 6.31181 13.4003 4.49299C13.3806 4.45366 13.3511 4.41433 13.3314 4.37501C13.2528 4.23737 13.184 4.26686 13.125 4.38484C13.0168 4.60113 12.8989 4.82726 12.8005 5.04355C11.9255 7.03933 11.4241 9.11377 11.3946 11.2964C11.3946 11.4438 11.375 11.5815 11.375 11.7289C10.9326 9.08428 11.0997 6.4986 12.0337 3.98175Z" fill="#FEFEFE"/>
    </g>
    <defs>
        <clipPath id="clip0">
            <rect width="16.8118" height="28" fill="white"/>
        </clipPath>
    </defs>
</svg>
