<svg width="18" height="17" viewBox="0 0 18 17" fill="none" xmlns="http://www.w3.org/2000/svg">
    <path d="M15.67 16H2.33C1.6 16 1 15.4 1 14.67V4C1 3.27 1.6 2.67 2.33 2.67H15.67C16.4 2.67 17 3.27 17 4V14.67C17 15.41 16.4 16 15.67 16Z" stroke="white" stroke-miterlimit="10"/>
    <path d="M17 6.67H1" stroke="white" stroke-miterlimit="10"/>
    <path d="M5.66992 0V5.34" stroke="white" stroke-miterlimit="10"/>
    <path d="M12.3298 0V5.34" stroke="white" stroke-miterlimit="10"/>
    <path d="M3 8.61V9.61" stroke="white" stroke-miterlimit="10"/>
    <path d="M5 8.61V9.61" stroke="white" stroke-miterlimit="10"/>
    <path d="M7 8.61V9.61" stroke="white" stroke-miterlimit="10"/>
    <path d="M9 8.61V9.61" stroke="white" stroke-miterlimit="10"/>
    <path d="M11 8.61V9.61" stroke="white" stroke-miterlimit="10"/>
    <path d="M13 8.61V9.61" stroke="white" stroke-miterlimit="10"/>
    <path d="M15 8.61V9.61" stroke="white" stroke-miterlimit="10"/>
    <path d="M3 10.75V11.75" stroke="white" stroke-miterlimit="10"/>
    <path d="M5 10.75V11.75" stroke="white" stroke-miterlimit="10"/>
    <path d="M7 10.75V11.75" stroke="white" stroke-miterlimit="10"/>
    <path d="M9 10.75V11.75" stroke="white" stroke-miterlimit="10"/>
    <path d="M11 10.75V11.75" stroke="white" stroke-miterlimit="10"/>
    <path d="M13 10.75V11.75" stroke="white" stroke-miterlimit="10"/>
    <path d="M15 10.75V11.75" stroke="white" stroke-miterlimit="10"/>
    <path d="M3 12.89V13.89" stroke="white" stroke-miterlimit="10"/>
    <path d="M5 12.89V13.89" stroke="white" stroke-miterlimit="10"/>
    <path d="M7 12.89V13.89" stroke="white" stroke-miterlimit="10"/>
    <path d="M9 12.89V13.89" stroke="white" stroke-miterlimit="10"/>
    <path d="M11 12.89V13.89" stroke="white" stroke-miterlimit="10"/>
    <path d="M13 12.89V13.89" stroke="white" stroke-miterlimit="10"/>
    <path d="M15 12.89V13.89" stroke="white" stroke-miterlimit="10"/>
</svg>
