<svg width="21" height="20" viewBox="0 0 21 20" fill="none" xmlns="http://www.w3.org/2000/svg">
    <path d="M10.8301 20C16.3529 20 20.8301 15.5228 20.8301 10C20.8301 4.47715 16.3529 0 10.8301 0C5.30723 0 0.830078 4.47715 0.830078 10C0.830078 15.5228 5.30723 20 10.8301 20Z" fill="#9DCE5B"/>
    <path d="M9.56006 12.74V10.4C10.8301 9.8 11.7001 9.25 12.1801 8.77C12.6501 8.29 12.89 7.76 12.89 7.17C12.89 6.58 12.7001 6.12 12.3201 5.79C11.9401 5.46 11.3901 5.29 10.6801 5.29C10.0601 5.29 9.58009 5.41 9.22009 5.64C8.86009 5.87 8.59001 6.16 8.39001 6.5L7.1001 5.66C7.3901 5.14 7.82001 4.71 8.39001 4.38C8.96001 4.05 9.72004 3.89 10.67 3.89C11.86 3.89 12.8 4.16 13.51 4.7C14.21 5.24 14.5701 6 14.5701 6.99C14.5701 7.54 14.4501 8.03 14.2201 8.46C13.9901 8.89 13.66 9.29 13.24 9.66C12.82 10.03 12.0901 10.48 11.0601 11.04V12.74H9.56006ZM11.37 15.14C11.37 15.5 11.29 15.75 11.12 15.89C10.95 16.03 10.6901 16.1 10.3201 16.1C9.91007 16.1 9.64 16.02 9.5 15.85C9.36 15.68 9.29004 15.45 9.29004 15.14C9.29004 14.8 9.37003 14.55 9.53003 14.4C9.69003 14.25 9.95007 14.17 10.3201 14.17C10.7101 14.17 10.98 14.25 11.14 14.4C11.29 14.55 11.37 14.8 11.37 15.14Z" fill="white"/>
</svg>
