<svg width="23" height="22" viewBox="0 0 23 22" fill="none" xmlns="http://www.w3.org/2000/svg">
    <path d="M21.9678 12.2108C22.009 11.8089 22.04 11.407 22.04 10.9948C22.04 10.5827 22.0194 10.1808 21.9678 9.77892L19.4834 8.89274C19.2772 8.04778 18.9369 7.24403 18.4936 6.51241L19.6276 4.13208C19.1224 3.49321 18.5349 2.91616 17.906 2.41124L15.5245 3.54473C14.7926 3.10164 13.9988 2.7719 13.1432 2.5555L12.2566 0.0721311C11.8545 0.0309134 11.4524 0 11.04 0C10.6277 0 10.2256 0.0206089 9.82349 0.0721311L8.93691 2.5555C8.09156 2.76159 7.2875 3.10164 6.55555 3.54473L4.17405 2.41124C3.53488 2.91616 2.95764 3.50351 2.45249 4.13208L3.58648 6.51241C3.14318 7.24403 2.81333 8.03747 2.59684 8.89274L0.112274 9.77892C0.0710372 10.1808 0.0400391 10.5827 0.0400391 10.9948C0.0400391 11.407 0.060728 11.8192 0.112274 12.2108L2.59684 13.097C2.80302 13.9419 3.14318 14.7457 3.58648 15.4773L2.45249 17.8576C2.95764 18.4965 3.54519 19.0735 4.17405 19.5888L6.55555 18.4553C7.2875 18.8984 8.08125 19.2281 8.93691 19.4445L9.82349 21.9279C10.2256 21.9691 10.6277 22 11.04 22C11.4524 22 11.8545 21.9794 12.2566 21.9279L13.1432 19.4445C13.9885 19.2384 14.7926 18.8984 15.5245 18.4553L17.906 19.5888C18.5452 19.0838 19.1224 18.4965 19.6276 17.8576L18.4936 15.4773C18.9369 14.7457 19.2669 13.9522 19.4834 13.097L21.9678 12.2108ZM11.04 15.3742C8.61737 15.3742 6.65861 13.4164 6.65861 10.9948C6.65861 8.5733 8.61737 6.61546 11.04 6.61546C13.4627 6.61546 15.4215 8.5733 15.4215 10.9948C15.4215 13.4164 13.4627 15.3742 11.04 15.3742Z" fill="#9DCE5B"/>
</svg>
