<svg width="22" height="22" viewBox="0 0 22 22" fill="none" xmlns="http://www.w3.org/2000/svg">
    <path d="M11 21C16.5228 21 21 16.5228 21 11C21 5.47715 16.5228 1 11 1C5.47715 1 1 5.47715 1 11C1 16.5228 5.47715 21 11 21Z" stroke="#9DCE5B" stroke-miterlimit="10"/>
    <path d="M17.6801 18.44C15.1801 15.94 12.3501 15.26 12.3501 15.26V13.18C12.3501 13.18 12.41 13.12 13.38 12.15C14.35 11.18 14.1901 9.67 14.1901 9.67C14.8201 9.67 14.77 9.09 14.77 9.09C14.77 9.09 14.77 8.54 14.77 8.05C14.77 7.56 14.24 7.52 14.24 7.52V6.51C14.24 3.86 11.01 4 11.01 4C11.01 4 7.78003 3.86 7.78003 6.51V7.52C7.78003 7.52 7.25 7.57 7.25 8.05C7.25 8.53 7.25 9.09 7.25 9.09C7.25 9.09 7.20008 9.67 7.83008 9.67C7.83008 9.67 7.67001 11.19 8.64001 12.15C9.61001 13.11 9.67004 13.18 9.67004 13.18V15.26C9.67004 15.26 6.84009 15.94 4.34009 18.44" stroke="#9DCE5B" stroke-miterlimit="10"/>
</svg>
